<?xml version="1.0" encoding="UTF-8" standalone="no"?>
<svg
   xmlns:dc="http://purl.org/dc/elements/1.1/"
   xmlns:cc="http://creativecommons.org/ns#"
   xmlns:rdf="http://www.w3.org/1999/02/22-rdf-syntax-ns#"
   xmlns:svg="http://www.w3.org/2000/svg"
   xmlns="http://www.w3.org/2000/svg"
   xmlns:sodipodi="http://sodipodi.sourceforge.net/DTD/sodipodi-0.dtd"
   xmlns:inkscape="http://www.inkscape.org/namespaces/inkscape"
   width="358.59961"
   height="464.66602"
   viewBox="0 0 94.879475 122.94289"
   version="1.1"
   id="svg8"
   inkscape:version="1.0.2 (e86c870879, 2021-01-15, custom)"
   sodipodi:docname="home_white.svg"
   inkscape:export-filename="C:\Users\yvele\Documents\Purdue Spring 2021\Multimedia Applications\DJA\images\home_white.png"
   inkscape:export-xdpi="100.26211"
   inkscape:export-ydpi="100.26211">
  <defs
     id="defs2" />
  <sodipodi:namedview
     id="base"
     pagecolor="#ffffff"
     bordercolor="#666666"
     borderopacity="1.0"
     inkscape:pageopacity="0.0"
     inkscape:pageshadow="2"
     inkscape:zoom="1.66"
     inkscape:cx="170.70117"
     inkscape:cy="217.16797"
     inkscape:document-units="mm"
     inkscape:current-layer="layer1"
     inkscape:document-rotation="0"
     showgrid="false"
     units="px"
     showguides="true"
     inkscape:guide-bbox="true"
     inkscape:window-width="1431"
     inkscape:window-height="1030"
     inkscape:window-x="32"
     inkscape:window-y="0"
     inkscape:window-maximized="0"
     fit-margin-top="50"
     fit-margin-left="50"
     fit-margin-right="50"
     fit-margin-bottom="50">
    <sodipodi:guide
       position="47.172582,57.863301"
       orientation="1,0"
       id="guide845" />
  </sodipodi:namedview>
  <metadata
     id="metadata5">
    <rdf:RDF>
      <cc:Work
         rdf:about="">
        <dc:format>image/svg+xml</dc:format>
        <dc:type
           rdf:resource="http://purl.org/dc/dcmitype/StillImage" />
        <dc:title></dc:title>
      </cc:Work>
    </rdf:RDF>
  </metadata>
  <g
     inkscape:label="Layer 1"
     inkscape:groupmode="layer"
     id="layer1"
     transform="translate(-20.981148,-8.6868079)">
    <path
       id="rect839"
       style="opacity:0.9957;fill:#ffffff;fill-opacity:1;stroke:none;stroke-width:0.805032;stroke-opacity:1"
       d="M 257.58984,82.832031 129.29883,188.89844 V 447.49805 H 387.89844 V 188.89844 Z m 52.81836,95.296879 c 1.71667,-0.0138 2.72657,0.0781 2.72657,0.0781 0,0 15.56831,1.46837 17.03711,11.75 1.46879,10.28164 -9.10547,13.80664 -9.10547,13.80664 0,0 -9.988,3.52604 -17.33203,-3.23047 -7.34404,-6.7565 -1.46876,-16.74414 -1.46876,-16.74414 -17.33189,3.81889 -24.67578,21.73828 -24.67578,21.73828 0,0 -3.23318,10.86955 -4.4082,20.85743 -1.17505,9.98787 -15.27539,124.25976 -15.27539,124.25976 0,0 -2.34917,31.72703 -14.09961,49.64649 -11.75044,17.91942 -32.66602,20.59765 -32.66602,20.59765 l -9.25585,0.81055 c 0,0 -16.83045,-0.8449 -17.41797,-12.00781 -0.58753,-11.16291 13.80664,-13.80664 13.80664,-13.80664 0,0 12.04401,-1.46869 15.27539,7.93164 3.23138,9.40036 -2.05664,12.92578 -2.05664,12.92578 0,0 8.22664,-0.88135 16.1582,-7.93164 7.93153,-7.05026 9.39953,-15.2772 11.16211,-19.6836 1.76254,-4.40643 5.28747,-30.54972 5.875,-38.1875 0.58753,-7.63779 11.74995,-101.93511 13.21875,-113.68554 1.46884,-11.75044 8.81445,-29.66993 8.81445,-29.66993 0,0 4.40463,-11.45628 17.33008,-21.15039 9.69412,-7.27058 21.20743,-8.26337 26.35742,-8.30468 z"
       transform="scale(0.26458333)" />
  </g>
</svg>
