<?xml version="1.0" encoding="UTF-8" standalone="no"?>
<svg
   width="500"
   height="500"
   viewBox="0 0 132.29166 132.29167"
   version="1.1"
   id="svg8"
   inkscape:version="1.3.2 (091e20e, 2023-11-25, custom)"
   sodipodi:docname="home_violet.svg"
   xmlns:inkscape="http://www.inkscape.org/namespaces/inkscape"
   xmlns:sodipodi="http://sodipodi.sourceforge.net/DTD/sodipodi-0.dtd"
   xmlns="http://www.w3.org/2000/svg"
   xmlns:svg="http://www.w3.org/2000/svg"
   xmlns:rdf="http://www.w3.org/1999/02/22-rdf-syntax-ns#"
   xmlns:cc="http://creativecommons.org/ns#"
   xmlns:dc="http://purl.org/dc/elements/1.1/">
  <defs
     id="defs2" />
  <sodipodi:namedview
     id="base"
     pagecolor="#ffffff"
     bordercolor="#666666"
     borderopacity="1.0"
     inkscape:pageopacity="0.0"
     inkscape:pageshadow="2"
     inkscape:zoom="0.98994949"
     inkscape:cx="232.84016"
     inkscape:cy="352.54324"
     inkscape:document-units="mm"
     inkscape:current-layer="layer1"
     inkscape:document-rotation="0"
     showgrid="false"
     units="px"
     showguides="true"
     inkscape:guide-bbox="true"
     inkscape:window-width="1431"
     inkscape:window-height="1030"
     inkscape:window-x="32"
     inkscape:window-y="0"
     inkscape:window-maximized="0"
     inkscape:showpageshadow="2"
     inkscape:pagecheckerboard="0"
     inkscape:deskcolor="#d1d1d1">
    <sodipodi:guide
       position="68.153729,58.525276"
       orientation="1,0"
       id="guide845"
       inkscape:locked="false" />
  </sodipodi:namedview>
  <metadata
     id="metadata5">
    <rdf:RDF>
      <cc:Work
         rdf:about="">
        <dc:format>image/svg+xml</dc:format>
        <dc:type
           rdf:resource="http://purl.org/dc/dcmitype/StillImage" />
        <dc:title />
      </cc:Work>
    </rdf:RDF>
  </metadata>
  <g
     inkscape:label="Layer 1"
     inkscape:groupmode="layer"
     id="layer1">
    <path
       id="rect839"
       style="opacity:0.9957;fill:#3f464b;stroke-width:0.805032;stroke:none;stroke-opacity:1;fill-opacity:1"
       d="M 257.58984 82.832031 L 129.29883 188.89844 L 129.29883 447.49805 L 387.89844 447.49805 L 387.89844 188.89844 L 257.58984 82.832031 z M 310.4082 178.12891 C 312.12487 178.11514 313.13477 178.20703 313.13477 178.20703 C 313.13477 178.20703 328.70308 179.6754 330.17188 189.95703 C 331.64067 200.23867 321.06641 203.76367 321.06641 203.76367 C 321.06641 203.76367 311.07841 207.28971 303.73438 200.5332 C 296.39034 193.7767 302.26562 183.78906 302.26562 183.78906 C 284.93373 187.60795 277.58984 205.52734 277.58984 205.52734 C 277.58984 205.52734 274.35666 216.39689 273.18164 226.38477 C 272.00659 236.37264 257.90625 350.64453 257.90625 350.64453 C 257.90625 350.64453 255.55708 382.37156 243.80664 400.29102 C 232.0562 418.21044 211.14062 420.88867 211.14062 420.88867 L 201.88477 421.69922 C 201.88477 421.69922 185.05432 420.85432 184.4668 409.69141 C 183.87927 398.5285 198.27344 395.88477 198.27344 395.88477 C 198.27344 395.88477 210.31745 394.41608 213.54883 403.81641 C 216.78021 413.21677 211.49219 416.74219 211.49219 416.74219 C 211.49219 416.74219 219.71883 415.86084 227.65039 408.81055 C 235.58192 401.76029 237.04992 393.53335 238.8125 389.12695 C 240.57504 384.72052 244.09997 358.57723 244.6875 350.93945 C 245.27503 343.30166 256.43745 249.00434 257.90625 237.25391 C 259.37509 225.50347 266.7207 207.58398 266.7207 207.58398 C 266.7207 207.58398 271.12533 196.1277 284.05078 186.43359 C 293.7449 179.16301 305.25821 178.17022 310.4082 178.12891 z "
       transform="scale(0.26458333)" />
  </g>
</svg>
