<?xml version="1.0" encoding="UTF-8" standalone="no"?>
<svg
   width="421.00558"
   height="344.38174"
   viewBox="0 0 111.39106 91.117672"
   version="1.1"
   id="svg8"
   inkscape:version="1.3.2 (091e20e, 2023-11-25, custom)"
   sodipodi:docname="integral.svg"
   inkscape:export-filename="C:\Users\yvele\Documents\Purdue Spring 2021\Multimedia Applications\DJA\images\integral.png"
   inkscape:export-xdpi="149.66748"
   inkscape:export-ydpi="149.66748"
   xmlns:inkscape="http://www.inkscape.org/namespaces/inkscape"
   xmlns:sodipodi="http://sodipodi.sourceforge.net/DTD/sodipodi-0.dtd"
   xmlns="http://www.w3.org/2000/svg"
   xmlns:svg="http://www.w3.org/2000/svg"
   xmlns:rdf="http://www.w3.org/1999/02/22-rdf-syntax-ns#"
   xmlns:cc="http://creativecommons.org/ns#"
   xmlns:dc="http://purl.org/dc/elements/1.1/">
  <defs
     id="defs2">
    <filter
       inkscape:collect="always"
       style="color-interpolation-filters:sRGB"
       id="filter893"
       x="-1.4497488e-05"
       width="1.000029"
       y="-8.6818231e-06"
       height="1.0000174">
      <feGaussianBlur
         inkscape:collect="always"
         stdDeviation="0.00023312503"
         id="feGaussianBlur895" />
    </filter>
  </defs>
  <sodipodi:namedview
     id="base"
     pagecolor="#ffffff"
     bordercolor="#666666"
     borderopacity="1.0"
     inkscape:pageopacity="0.0"
     inkscape:pageshadow="2"
     inkscape:zoom="1.4"
     inkscape:cx="224.28571"
     inkscape:cy="186.07143"
     inkscape:document-units="mm"
     inkscape:current-layer="g856"
     inkscape:document-rotation="0"
     showgrid="false"
     inkscape:window-width="1920"
     inkscape:window-height="991"
     inkscape:window-x="-9"
     inkscape:window-y="-9"
     inkscape:window-maximized="1"
     units="px"
     showguides="true"
     inkscape:guide-bbox="true"
     fit-margin-top="50"
     fit-margin-left="50"
     fit-margin-right="50"
     fit-margin-bottom="50"
     inkscape:showpageshadow="2"
     inkscape:pagecheckerboard="0"
     inkscape:deskcolor="#d1d1d1">
    <sodipodi:guide
       position="17.842294,13.443504"
       orientation="0,-1"
       id="guide874"
       inkscape:locked="false" />
  </sodipodi:namedview>
  <metadata
     id="metadata5">
    <rdf:RDF>
      <cc:Work
         rdf:about="">
        <dc:format>image/svg+xml</dc:format>
        <dc:type
           rdf:resource="http://purl.org/dc/dcmitype/StillImage" />
        <dc:title />
      </cc:Work>
    </rdf:RDF>
  </metadata>
  <g
     inkscape:groupmode="layer"
     id="layer2"
     inkscape:label="pink"
     transform="translate(-26.062155,4.6668823)">
    <path
       style="fill:#e70176;fill-opacity:1;stroke:none;stroke-width:0.076943px;stroke-linecap:butt;stroke-linejoin:miter;stroke-opacity:1;filter:url(#filter893)"
       d="m 46.3534,72.792949 c 0,0 5.533883,-0.70893 8.642853,-5.450109 3.10897,-4.741179 3.730765,-13.135399 3.730765,-13.135399 0,0 3.730765,-30.234736 4.041663,-32.87736 0.310897,-2.642625 1.165863,-5.518422 1.165863,-5.518422 0,0 1.943107,-4.741179 6.528837,-5.751594 0,0 -1.554485,2.642624 0.388622,4.430282 1.943107,1.787658 4.58573,0.854967 4.58573,0.854967 0,0 2.798073,-0.932691 2.409454,-3.65304 -0.388622,-2.7203488 -4.508009,-3.1089698 -4.508009,-3.1089698 0,0 -4.274833,-0.388622 -7.6947,2.1762788 -3.419868,2.5649 -4.585731,5.596146 -4.585731,5.596146 0,0 -1.943107,4.74118 -2.331729,7.85015 -0.388622,3.10897 -3.342144,28.058458 -3.497592,30.07929 -0.155448,2.020828 -1.08814,8.938287 -1.554485,10.10415 -0.466346,1.165866 -0.854967,3.342143 -2.953522,5.207526 -2.098555,1.865382 -4.274834,2.098555 -4.274834,2.098555 0,0 1.399037,-0.93269 0.54407,-3.419867 -0.854967,-2.487175 -4.041661,-2.098556 -4.041661,-2.098556 0,0 -3.808488,0.69952 -3.65304,3.653041 0.155449,2.953521 4.608496,3.177266 4.608496,3.177266 z"
       id="path33"
       sodipodi:nodetypes="cscsccscscscsssscscscc"
       inkscape:export-xdpi="329.07999"
       inkscape:export-ydpi="329.07999" />
  </g>
  <g
     inkscape:groupmode="layer"
     id="g852"
     inkscape:label="green"
     transform="translate(-26.062155,4.6668823)">
    <path
       style="fill:#44a764;fill-opacity:1;stroke:none;stroke-width:0.076943px;stroke-linecap:butt;stroke-linejoin:miter;stroke-opacity:1"
       d="m 55.31142,72.792949 c 0,0 5.533883,-0.70893 8.642853,-5.450109 3.10897,-4.741179 3.730765,-13.135399 3.730765,-13.135399 0,0 3.730765,-30.234736 4.041663,-32.87736 0.310897,-2.642625 1.165863,-5.518422 1.165863,-5.518422 0,0 1.943107,-4.741179 6.528837,-5.751594 0,0 -1.554485,2.642624 0.388622,4.430282 1.943107,1.787658 4.58573,0.854967 4.58573,0.854967 0,0 2.798073,-0.932691 2.409454,-3.65304 -0.388622,-2.720349 -4.508009,-3.10897 -4.508009,-3.10897 0,0 -4.274833,-0.388622 -7.6947,2.176279 -3.419868,2.5649 -4.585731,5.596146 -4.585731,5.596146 0,0 -1.943107,4.74118 -2.331729,7.85015 -0.388622,3.10897 -3.342144,28.058458 -3.497592,30.07929 -0.155448,2.020828 -1.08814,8.938287 -1.554485,10.10415 -0.466346,1.165866 -0.854967,3.342143 -2.953522,5.207526 -2.098555,1.865382 -4.274834,2.098555 -4.274834,2.098555 0,0 1.399037,-0.93269 0.54407,-3.419867 -0.854967,-2.487175 -4.041661,-2.098556 -4.041661,-2.098556 0,0 -3.808488,0.69952 -3.65304,3.653041 0.155449,2.953521 4.608496,3.177266 4.608496,3.177266 z"
       id="path850"
       sodipodi:nodetypes="cscsccscscscsssscscscc" />
  </g>
  <g
     inkscape:groupmode="layer"
     id="g921"
     inkscape:label="pink copy"
     transform="translate(-26.062155,4.6668823)" />
  <g
     inkscape:groupmode="layer"
     id="g868"
     inkscape:label="red"
     transform="translate(-26.062155,4.6668823)">
    <path
       style="fill:#ac0035;fill-opacity:1;stroke:none;stroke-width:0.076943px;stroke-linecap:butt;stroke-linejoin:miter;stroke-opacity:1"
       d="m 64.874217,72.792949 c 0,0 5.53389,-0.70893 8.64286,-5.450109 3.10897,-4.741179 3.73076,-13.135399 3.73076,-13.135399 0,0 3.73077,-30.234736 4.04166,-32.87736 0.3109,-2.642625 1.16587,-5.518422 1.16587,-5.518422 0,0 1.9431,-4.741179 6.52883,-5.751595 0,0 -1.55448,2.642625 0.38863,4.430283 1.9431,1.787658 4.58573,0.854967 4.58573,0.854967 0,0 2.798073,-0.932691 2.409453,-3.65304 -0.38862,-2.7203496 -4.508013,-3.1089706 -4.508013,-3.1089706 0,0 -4.27483,-0.3886221 -7.6947,2.1762796 -3.41987,2.5649 -4.58573,5.596146 -4.58573,5.596146 0,0 -1.94311,4.74118 -2.33173,7.85015 -0.38862,3.10897 -3.34214,28.058458 -3.49759,30.07929 -0.15545,2.020828 -1.08814,8.938287 -1.55449,10.10415 -0.46634,1.165866 -0.85496,3.342143 -2.95352,5.207526 -2.09855,1.865382 -4.27483,2.098555 -4.27483,2.098555 0,0 1.39903,-0.93269 0.54407,-3.419867 -0.85497,-2.487175 -4.04166,-2.098556 -4.04166,-2.098556 0,0 -3.80849,0.69952 -3.65304,3.653041 0.15544,2.953521 4.60849,3.177266 4.60849,3.177266 z"
       id="path866"
       sodipodi:nodetypes="cscsccscscscsssscscscc" />
  </g>
  <g
     inkscape:groupmode="layer"
     id="g912"
     inkscape:label="green copy"
     transform="translate(-26.062155,4.6668823)" />
  <g
     inkscape:groupmode="layer"
     id="g856"
     inkscape:label="blue"
     style="display:inline"
     transform="translate(-26.062155,4.6668823)">
    <path
       style="fill:#0c6dff;fill-opacity:1;stroke:none;stroke-width:0.076943px;stroke-linecap:butt;stroke-linejoin:miter;stroke-opacity:1"
       d="m 74.172434,73.007284 c 0,0 5.533883,-0.70893 8.642853,-5.450109 3.10897,-4.741179 3.730765,-13.135399 3.730765,-13.135399 0,0 3.730765,-30.234736 4.041663,-32.87736 0.310897,-2.642625 1.165863,-5.518422 1.165863,-5.518422 0,0 1.943107,-4.741179 6.528837,-5.751595 0,0 -1.554485,2.642625 0.388622,4.430283 1.943113,1.787658 4.585743,0.854967 4.585743,0.854967 0,0 2.79808,-0.932691 2.40946,-3.65304 -0.38862,-2.7203498 -4.50802,-3.1089708 -4.50802,-3.1089708 0,0 -4.274841,-0.388622 -7.694708,2.1762798 -3.419868,2.5649 -4.585731,5.596146 -4.585731,5.596146 0,0 -1.943107,4.74118 -2.331729,7.85015 -0.388622,3.10897 -3.342144,28.058458 -3.497592,30.07929 -0.155448,2.020828 -1.08814,8.938287 -1.554485,10.10415 -0.466346,1.165866 -0.854967,3.342143 -2.953522,5.207526 -2.098555,1.865382 -4.274834,2.098555 -4.274834,2.098555 0,0 1.399037,-0.93269 0.54407,-3.419867 -0.854967,-2.487175 -4.041661,-2.098556 -4.041661,-2.098556 0,0 -3.808488,0.69952 -3.65304,3.653041 0.155449,2.953521 4.608496,3.177266 4.608496,3.177266 z"
       id="path854"
       sodipodi:nodetypes="cscsccscscscsssscscscc" />
  </g>
  <g
     inkscape:groupmode="layer"
     id="g899"
     inkscape:label="red copy"
     transform="translate(-26.062155,4.6668823)" />
  <g
     inkscape:groupmode="layer"
     id="g864"
     inkscape:label="orange"
     style="display:inline"
     transform="translate(-26.062155,4.6668823)">
    <path
       style="fill:#db6b02;fill-opacity:1;stroke:none;stroke-width:0.076943px;stroke-linecap:butt;stroke-linejoin:miter;stroke-opacity:1"
       d="m 83.35725,72.792949 c 0,0 5.53389,-0.70893 8.64286,-5.450109 3.10897,-4.741179 3.73076,-13.135399 3.73076,-13.135399 0,0 3.73077,-30.234736 4.041663,-32.87736 0.310897,-2.642625 1.165867,-5.518422 1.165867,-5.518422 0,0 1.9431,-4.741179 6.52883,-5.751595 0,0 -1.55448,2.642625 0.38863,4.430283 1.9431,1.787658 4.58573,0.854967 4.58573,0.854967 0,0 2.79807,-0.932691 2.40945,-3.65304 -0.38862,-2.7203502 -4.50801,-3.1089709 -4.50801,-3.1089709 0,0 -4.27483,-0.388622 -7.6947,2.1762799 -3.41987,2.5649 -4.58573,5.596146 -4.58573,5.596146 0,0 -1.94311,4.74118 -2.33173,7.85015 -0.38862,3.10897 -3.34214,28.058458 -3.49759,30.07929 -0.15545,2.020828 -1.08814,8.938287 -1.55449,10.10415 -0.46634,1.165866 -0.85496,3.342143 -2.95352,5.207526 -2.09855,1.865382 -4.27483,2.098555 -4.27483,2.098555 0,0 1.39903,-0.93269 0.54407,-3.419867 -0.85497,-2.487175 -4.04166,-2.098556 -4.04166,-2.098556 0,0 -3.80849,0.69952 -3.65304,3.653041 0.15544,2.953521 4.60849,3.177266 4.60849,3.177266 z"
       id="path862"
       sodipodi:nodetypes="cscsccscscscsssscscscc" />
  </g>
  <g
     inkscape:groupmode="layer"
     id="g894"
     inkscape:label="blue copy"
     style="display:inline"
     transform="translate(-26.062155,4.6668823)" />
  <g
     inkscape:groupmode="layer"
     id="g860"
     inkscape:label="purple"
     style="display:inline"
     transform="translate(-26.062155,4.6668823)">
    <path
       style="fill:#7a38e8;fill-opacity:1;stroke:none;stroke-width:0.076943px;stroke-linecap:butt;stroke-linejoin:miter;stroke-opacity:1"
       d="m 92.693257,72.792949 c 0,0 5.533875,-0.70893 8.642833,-5.450109 3.10897,-4.741179 3.73076,-13.135399 3.73076,-13.135399 0,0 3.73077,-30.234736 4.04166,-32.87736 0.3109,-2.642625 1.16587,-5.518422 1.16587,-5.518422 0,0 1.9431,-4.741179 6.52883,-5.751595 0,0 -1.55448,2.642625 0.38863,4.430283 1.9431,1.787658 4.58573,0.854967 4.58573,0.854967 0,0 2.79807,-0.932691 2.40945,-3.65304 -0.38862,-2.7203501 -4.50801,-3.1089716 -4.50801,-3.1089716 0,0 -4.27483,-0.388622 -7.6947,2.1762806 -3.41987,2.5649 -4.58573,5.596146 -4.58573,5.596146 0,0 -1.94311,4.74118 -2.33173,7.85015 -0.38862,3.10897 -3.34214,28.058458 -3.49759,30.07929 -0.15545,2.020828 -1.08814,8.938287 -1.55449,10.10415 -0.466337,1.165866 -0.854954,3.342143 -2.953502,5.207526 -2.098541,1.865382 -4.274821,2.098555 -4.274821,2.098555 0,0 1.39904,-0.93269 0.54407,-3.419867 -0.85497,-2.487175 -4.04166,-2.098556 -4.04166,-2.098556 0,0 -3.80849,0.69952 -3.65304,3.653041 0.15545,2.953521 4.60849,3.177266 4.60849,3.177266 z"
       id="path858"
       sodipodi:nodetypes="cscsccscscscsssscscscc" />
  </g>
  <g
     inkscape:groupmode="layer"
     id="g885"
     inkscape:label="orange copy"
     style="display:inline"
     transform="translate(-26.062155,4.6668823)">
    <g
       id="g933"
       style="opacity:0.9957">
      <path
         id="path919"
         style="fill:#7a38e8;fill-opacity:1;stroke:none;stroke-width:0.290808px;stroke-linecap:butt;stroke-linejoin:miter;stroke-opacity:1"
         d="m 289.01562,36.505859 c -2.38081,1.086024 -4.7668,2.44571 -7.05273,4.160157 -6.62697,4.970227 -11.0026,10.394501 -13.70508,14.509765 2.47751,2.10427 5.21136,3.095451 7.75,3.498047 1.52537,-3.162933 6.85167,-12.876631 16.99024,-18.060547 -0.96826,-1.694805 -2.39084,-3.031434 -3.98243,-4.107422 z M 200.43555,250.18359 c -1.56528,3.99555 -3.97695,8.63229 -8.73243,12.85938 -2.7605,2.45378 -5.54897,4.1479 -8.02148,5.33008 0.77476,1.32623 1.83935,2.42198 3.05664,3.32617 6.76897,-2.87781 15.13038,-8.03994 21.1211,-17.17578 0.21855,-0.3333 0.42657,-0.68088 0.63867,-1.02344 -2.41674,-2.18936 -5.55404,-3.02363 -8.0625,-3.31641 z"
         transform="scale(0.26458333)" />
      <path
         id="path910"
         style="fill:#db6b02;fill-opacity:1;stroke:none;stroke-width:0.290808px;stroke-linecap:butt;stroke-linejoin:miter;stroke-opacity:1"
         d="m 323.79688,37.158203 c -1.92555,0.967177 -3.84141,2.120315 -5.69141,3.507813 -7.26206,5.446542 -11.83416,11.449234 -14.44727,15.664062 2.79609,1.825788 5.78475,2.458186 8.37891,2.5625 1.32445,-2.7898 6.15031,-11.829153 15.31445,-17.291016 -0.78407,-1.809242 -2.05651,-3.267062 -3.55468,-4.443359 z M 234.35352,250.03711 c -1.56322,4.02745 -3.98043,8.72805 -8.79297,13.00586 -2.10347,1.86975 -4.2231,3.29587 -6.20899,4.39648 0.6325,1.42212 1.57941,2.60967 2.71094,3.59766 6.48153,-2.9842 14.08862,-8.02601 19.6543,-16.51367 0.46488,-0.70894 0.90981,-1.44597 1.3457,-2.19532 -2.98938,-1.87318 -6.53117,-2.26519 -8.70898,-2.29101 z"
         transform="scale(0.26458333)" />
      <path
         id="path897"
         style="fill:#fe5697;fill-opacity:1;stroke:none;stroke-width:0.290808px;stroke-linecap:butt;stroke-linejoin:miter;stroke-opacity:1"
         d="m 360.19922,37.363281 c -2.34682,1.078356 -4.69804,2.423431 -6.95117,4.113281 -6.69166,5.018739 -11.08556,10.497679 -13.78125,14.626954 2.68941,1.859738 5.58299,2.579192 8.14648,2.757812 1.78712,-3.540317 6.80705,-12.078651 15.95899,-17.060547 -0.73217,-1.793751 -1.93442,-3.254841 -3.37305,-4.4375 z M 270.1543,250.86719 c -1.5736,3.83788 -3.96179,8.18522 -8.45118,12.17578 -2.4932,2.21619 -5.01412,3.82307 -7.30078,4.98437 0.58411,1.40896 1.47267,2.59365 2.54688,3.58594 6.73035,-2.89569 14.98306,-8.05103 20.91016,-17.08984 0.24447,-0.37283 0.47844,-0.76017 0.71484,-1.14453 -2.78284,-1.89319 -6.12732,-2.41521 -8.41992,-2.51172 z"
         transform="scale(0.26458333)" />
      <path
         id="path892"
         style="display:inline;fill:#ac0035;fill-opacity:1;stroke:none;stroke-width:0.290808px;stroke-linecap:butt;stroke-linejoin:miter;stroke-opacity:1"
         d="m 393.80664,37.082031 c -1.9767,0.982311 -3.94504,2.159955 -5.84375,3.583985 -7.17506,5.38129 -11.7174,11.299528 -14.3457,15.505859 2.5628,2.097615 5.3878,3.043539 7.97265,3.388672 0.37537,-0.884561 5.35938,-12.235572 16.39063,-18.400391 -1.03559,-1.692914 -2.52454,-3.02096 -4.17383,-4.078125 z M 305.91602,250.12891 c -1.55205,4.17877 -3.96739,9.18867 -9.07032,13.72461 -2.37825,2.114 -4.77905,3.66328 -6.98047,4.81054 0.83731,1.32292 1.96619,2.40734 3.24219,3.29492 6.53241,-2.96918 14.26034,-8.03285 19.89453,-16.625 0.43451,-0.66262 0.85257,-1.34879 1.26172,-2.04687 -2.55695,-2.18305 -5.84412,-2.92967 -8.34765,-3.1582 z"
         transform="scale(0.26458333)" />
      <path
         id="path883"
         style="opacity:0.999525;fill:#44a764;fill-opacity:1;stroke:none;stroke-width:0.290808px;stroke-linecap:butt;stroke-linejoin:miter;stroke-opacity:1"
         d="m 429.45898,36.896484 c -2.10002,1.016912 -4.19457,2.257262 -6.21093,3.769532 -7.03891,5.279176 -11.53728,11.068131 -14.1875,15.257812 2.6726,1.93278 5.5655,2.698539 8.14843,2.914063 1.38506,-2.90599 6.40497,-12.239449 15.95899,-17.623047 -0.85558,-1.761987 -2.17564,-3.182049 -3.70899,-4.31836 z M 340.34375,250.06445 c -1.5636,4.02167 -3.98109,8.70999 -8.7832,12.97852 -2.34707,2.08629 -4.71481,3.62271 -6.89258,4.76562 0.68798,1.38237 1.67978,2.53212 2.84375,3.48633 6.59586,-2.94847 14.48203,-8.04384 20.20508,-16.77148 0.38122,-0.58137 0.7516,-1.17824 1.11328,-1.78711 -2.7505,-1.98165 -6.12963,-2.5508 -8.48633,-2.67188 z"
         transform="scale(0.26458333)" />
    </g>
  </g>
</svg>
