<?xml version="1.0" encoding="UTF-8" standalone="no"?>
<svg
   width="358.59961"
   height="464.66602"
   viewBox="0 0 94.879475 122.94289"
   version="1.1"
   id="svg8"
   inkscape:version="1.3.2 (091e20e, 2023-11-25, custom)"
   sodipodi:docname="sqrt.svg"
   inkscape:export-filename="C:\Users\yvele\Documents\Purdue Spring 2021\Multimedia Applications\DJA\images\home_white.png"
   inkscape:export-xdpi="100.26211"
   inkscape:export-ydpi="100.26211"
   xmlns:inkscape="http://www.inkscape.org/namespaces/inkscape"
   xmlns:sodipodi="http://sodipodi.sourceforge.net/DTD/sodipodi-0.dtd"
   xmlns="http://www.w3.org/2000/svg"
   xmlns:svg="http://www.w3.org/2000/svg"
   xmlns:rdf="http://www.w3.org/1999/02/22-rdf-syntax-ns#"
   xmlns:cc="http://creativecommons.org/ns#"
   xmlns:dc="http://purl.org/dc/elements/1.1/">
  <defs
     id="defs2" />
  <sodipodi:namedview
     id="base"
     pagecolor="#ffffff"
     bordercolor="#666666"
     borderopacity="1.0"
     inkscape:pageopacity="0.0"
     inkscape:pageshadow="2"
     inkscape:zoom="1.66"
     inkscape:cx="170.78313"
     inkscape:cy="216.86747"
     inkscape:document-units="mm"
     inkscape:current-layer="layer4"
     inkscape:document-rotation="0"
     showgrid="false"
     units="px"
     showguides="true"
     inkscape:guide-bbox="true"
     inkscape:window-width="1431"
     inkscape:window-height="1030"
     inkscape:window-x="32"
     inkscape:window-y="0"
     inkscape:window-maximized="0"
     fit-margin-top="50"
     fit-margin-left="50"
     fit-margin-right="50"
     fit-margin-bottom="50"
     inkscape:showpageshadow="2"
     inkscape:pagecheckerboard="0"
     inkscape:deskcolor="#d1d1d1">
    <sodipodi:guide
       position="47.172582,57.863301"
       orientation="1,0"
       id="guide845"
       inkscape:locked="false" />
  </sodipodi:namedview>
  <metadata
     id="metadata5">
    <rdf:RDF>
      <cc:Work
         rdf:about="">
        <dc:format>image/svg+xml</dc:format>
        <dc:type
           rdf:resource="http://purl.org/dc/dcmitype/StillImage" />
        <dc:title />
      </cc:Work>
    </rdf:RDF>
  </metadata>
  <g
     inkscape:groupmode="layer"
     id="layer4"
     inkscape:label="black"
     style="display:inline" />
  <g
     inkscape:groupmode="layer"
     id="layer5"
     inkscape:label="Layer 2"
     style="display:inline">
    <path
       style="fill:#ffffff;fill-opacity:1;stroke-width:0.184594"
       d="M 40.064117,108.67837 C 39.587995,108.4638 38.25714,105.85821 27.568329,84.213783 L 21.190313,71.298546 h -3.95424 c -2.174832,0 -4.86637,-0.06012 -5.981195,-0.133593 l -2.0269548,-0.13359 v -1.807924 -1.807921 h 6.7378038 6.737803 l 0.429412,0.625529 c 0.571875,0.833059 3.775787,7.17351 8.978279,17.767761 6.198686,12.622881 7.886722,15.980062 8.051721,16.013372 0.190636,0.0385 1.919783,-6.188305 20.302651,-73.111403 l 3.867081,-14.078169 0.583561,-0.329909 c 0.511997,-0.289451 1.784798,-0.337296 10.379033,-0.390148 l 9.795474,-0.06024 v 1.950661 1.95066 h -9.090991 -9.090992 l -0.181206,0.562018 c -0.09966,0.309109 -3.95489,14.265018 -8.567169,31.013131 -7.890432,28.651736 -9.682673,35.144821 -12.664234,45.881041 -1.246785,4.489521 -3.464271,12.293928 -3.668749,12.912108 -0.06247,0.18886 -0.343844,0.44176 -0.625283,0.56202 -0.585689,0.25026 -0.570125,0.25034 -1.138001,-0.006 z"
       id="path3237"
       inkscape:export-xdpi="100.26211"
       inkscape:export-ydpi="100.26211" />
  </g>
</svg>
